<mxfile host="app.diagrams.net" agent="Mozilla/5.0 (Macintosh; Intel Mac OS X 10.15; rv:135.0) Gecko/20100101 Firefox/135.0" version="26.0.14">
  <diagram id="Ht1M8jgEwFfnCIfOTk4-" name="Page-1">
    <mxGraphModel dx="1026" dy="688" grid="1" gridSize="10" guides="1" tooltips="1" connect="1" arrows="1" fold="1" page="1" pageScale="1" pageWidth="1169" pageHeight="827" math="0" shadow="0">
      <root>
        <mxCell id="0" />
        <mxCell id="1" parent="0" />
        <mxCell id="dUggy9YAXrd2Rz0z9RZD-44" value="&lt;div&gt;Registry&lt;/div&gt;" style="rounded=1;whiteSpace=wrap;html=1;" vertex="1" parent="1">
          <mxGeometry x="379" y="88" width="120" height="22" as="geometry" />
        </mxCell>
        <mxCell id="dUggy9YAXrd2Rz0z9RZD-41" style="edgeStyle=orthogonalEdgeStyle;rounded=0;orthogonalLoop=1;jettySize=auto;html=1;" edge="1" parent="1" source="dUggy9YAXrd2Rz0z9RZD-37" target="dUggy9YAXrd2Rz0z9RZD-29">
          <mxGeometry relative="1" as="geometry" />
        </mxCell>
        <mxCell id="dUggy9YAXrd2Rz0z9RZD-37" value="" style="rounded=1;arcSize=10;dashed=0;fillColor=none;gradientColor=none;strokeWidth=2;" vertex="1" parent="1">
          <mxGeometry x="530" y="140" width="190" height="200" as="geometry" />
        </mxCell>
        <mxCell id="dUggy9YAXrd2Rz0z9RZD-18" style="edgeStyle=orthogonalEdgeStyle;rounded=0;orthogonalLoop=1;jettySize=auto;html=1;entryX=0;entryY=0.4;entryDx=0;entryDy=0;entryPerimeter=0;" edge="1" parent="1" source="dUggy9YAXrd2Rz0z9RZD-9" target="dUggy9YAXrd2Rz0z9RZD-37">
          <mxGeometry relative="1" as="geometry">
            <mxPoint x="575.1794545454547" y="219" as="targetPoint" />
          </mxGeometry>
        </mxCell>
        <mxCell id="dUggy9YAXrd2Rz0z9RZD-9" value="Elastic Load Balancing" style="sketch=0;outlineConnect=0;fontColor=#232F3E;gradientColor=none;strokeColor=#ffffff;fillColor=#232F3E;dashed=0;verticalLabelPosition=middle;verticalAlign=bottom;align=center;html=1;whiteSpace=wrap;fontSize=10;fontStyle=1;spacing=3;shape=mxgraph.aws4.productIcon;prIcon=mxgraph.aws4.elastic_load_balancing;" vertex="1" parent="1">
          <mxGeometry x="388" y="178" width="80" height="110" as="geometry" />
        </mxCell>
        <mxCell id="dUggy9YAXrd2Rz0z9RZD-42" style="edgeStyle=orthogonalEdgeStyle;rounded=0;orthogonalLoop=1;jettySize=auto;html=1;" edge="1" parent="1" source="dUggy9YAXrd2Rz0z9RZD-10" target="dUggy9YAXrd2Rz0z9RZD-9">
          <mxGeometry relative="1" as="geometry" />
        </mxCell>
        <mxCell id="dUggy9YAXrd2Rz0z9RZD-10" value="" style="sketch=0;outlineConnect=0;fontColor=#232F3E;fillColor=#DD344C;strokeColor=#ffffff;dashed=0;verticalLabelPosition=bottom;verticalAlign=top;align=center;html=1;fontSize=12;fontStyle=0;aspect=fixed;shape=image;resIcon=mxgraph.aws4.mobile;labelBackgroundColor=default;perimeter=ellipsePerimeter;shadow=0;spacingTop=3;image=img/lib/active_directory/cell_phone.svg;" vertex="1" parent="1">
          <mxGeometry x="230" y="170" width="78" height="78" as="geometry" />
        </mxCell>
        <mxCell id="dUggy9YAXrd2Rz0z9RZD-6" value="" style="sketch=0;points=[[0,0,0],[0.25,0,0],[0.5,0,0],[0.75,0,0],[1,0,0],[0,1,0],[0.25,1,0],[0.5,1,0],[0.75,1,0],[1,1,0],[0,0.25,0],[0,0.5,0],[0,0.75,0],[1,0.25,0],[1,0.5,0],[1,0.75,0]];outlineConnect=0;fontColor=#232F3E;fillColor=#C925D1;strokeColor=#ffffff;dashed=0;verticalLabelPosition=bottom;verticalAlign=top;align=center;html=1;fontSize=12;fontStyle=0;aspect=fixed;shape=mxgraph.aws4.resourceIcon;resIcon=mxgraph.aws4.database;" vertex="1" parent="1">
          <mxGeometry x="950" y="179" width="78" height="78" as="geometry" />
        </mxCell>
        <mxCell id="dUggy9YAXrd2Rz0z9RZD-35" style="edgeStyle=orthogonalEdgeStyle;rounded=0;orthogonalLoop=1;jettySize=auto;html=1;" edge="1" parent="1" source="dUggy9YAXrd2Rz0z9RZD-13" target="dUggy9YAXrd2Rz0z9RZD-45">
          <mxGeometry relative="1" as="geometry">
            <mxPoint x="570" y="50" as="targetPoint" />
          </mxGeometry>
        </mxCell>
        <mxCell id="dUggy9YAXrd2Rz0z9RZD-13" value="" style="sketch=0;outlineConnect=0;fontColor=#232F3E;fillColor=#232F3E;strokeColor=#ffffff;dashed=0;verticalLabelPosition=bottom;verticalAlign=top;align=center;html=1;fontSize=12;fontStyle=0;aspect=fixed;shape=mxgraph.aws3.ecr_registry;resIcon=mxgraph.aws4.ecr;gradientColor=none;" vertex="1" parent="1">
          <mxGeometry x="400" y="10" width="78" height="78" as="geometry" />
        </mxCell>
        <mxCell id="dUggy9YAXrd2Rz0z9RZD-21" style="edgeStyle=orthogonalEdgeStyle;rounded=0;orthogonalLoop=1;jettySize=auto;html=1;entryX=0;entryY=0.5;entryDx=0;entryDy=0;entryPerimeter=0;" edge="1" parent="1" source="dUggy9YAXrd2Rz0z9RZD-29" target="dUggy9YAXrd2Rz0z9RZD-6">
          <mxGeometry relative="1" as="geometry">
            <mxPoint x="1000" y="219" as="targetPoint" />
          </mxGeometry>
        </mxCell>
        <mxCell id="dUggy9YAXrd2Rz0z9RZD-31" style="edgeStyle=orthogonalEdgeStyle;rounded=0;orthogonalLoop=1;jettySize=auto;html=1;entryX=0.5;entryY=1;entryDx=0;entryDy=0;" edge="1" parent="1" source="dUggy9YAXrd2Rz0z9RZD-16" target="dUggy9YAXrd2Rz0z9RZD-29">
          <mxGeometry relative="1" as="geometry" />
        </mxCell>
        <mxCell id="dUggy9YAXrd2Rz0z9RZD-16" value="" style="sketch=0;outlineConnect=0;fontColor=#232F3E;fillColor=#232F3E;strokeColor=#ffffff;dashed=0;verticalLabelPosition=middle;verticalAlign=bottom;align=center;html=1;fontSize=10;fontStyle=1;aspect=fixed;shape=mxgraph.aws4.productIcon;resIcon=mxgraph.aws4.secrets_manager;gradientColor=none;whiteSpace=wrap;spacing=3;prIcon=mxgraph.aws4.secrets_manager;" vertex="1" parent="1">
          <mxGeometry x="793.01" y="350" width="74" height="74" as="geometry" />
        </mxCell>
        <mxCell id="dUggy9YAXrd2Rz0z9RZD-34" style="edgeStyle=orthogonalEdgeStyle;rounded=0;orthogonalLoop=1;jettySize=auto;html=1;entryX=0.5;entryY=0;entryDx=0;entryDy=0;" edge="1" parent="1" source="dUggy9YAXrd2Rz0z9RZD-32" target="dUggy9YAXrd2Rz0z9RZD-29">
          <mxGeometry relative="1" as="geometry" />
        </mxCell>
        <mxCell id="dUggy9YAXrd2Rz0z9RZD-32" value="" style="image;sketch=0;aspect=fixed;html=1;points=[];align=center;fontSize=12;image=img/lib/mscae/Cache_Redis_Product.svg;" vertex="1" parent="1">
          <mxGeometry x="788.3399999999999" y="30" width="83.33" height="70" as="geometry" />
        </mxCell>
        <mxCell id="dUggy9YAXrd2Rz0z9RZD-29" value="" style="rhombus;whiteSpace=wrap;html=1;verticalAlign=top;fillColor=#232F3E;strokeColor=none;fontColor=#232F3E;sketch=0;gradientColor=none;dashed=0;fontStyle=0;pointerEvents=1;" vertex="1" parent="1">
          <mxGeometry x="790.005" y="178" width="80" height="80" as="geometry" />
        </mxCell>
        <mxCell id="dUggy9YAXrd2Rz0z9RZD-36" value="Container 1" style="sketch=0;outlineConnect=0;fontColor=#232F3E;gradientColor=none;strokeColor=#232F3E;fillColor=#ffffff;dashed=0;verticalLabelPosition=bottom;verticalAlign=top;align=center;html=1;fontSize=12;fontStyle=0;aspect=fixed;shape=mxgraph.aws4.resourceIcon;resIcon=mxgraph.aws4.container_1;" vertex="1" parent="1">
          <mxGeometry x="590" y="150" width="60" height="60" as="geometry" />
        </mxCell>
        <mxCell id="dUggy9YAXrd2Rz0z9RZD-40" value="&lt;div&gt;Container n+1&lt;/div&gt;" style="sketch=0;outlineConnect=0;fontColor=#232F3E;gradientColor=none;strokeColor=#232F3E;fillColor=#ffffff;dashed=0;verticalLabelPosition=bottom;verticalAlign=top;align=center;html=1;fontSize=12;fontStyle=0;aspect=fixed;shape=mxgraph.aws4.resourceIcon;resIcon=mxgraph.aws4.container_1;" vertex="1" parent="1">
          <mxGeometry x="590" y="230" width="60" height="60" as="geometry" />
        </mxCell>
        <mxCell id="dUggy9YAXrd2Rz0z9RZD-43" value="" style="sketch=0;points=[[0,0,0],[0.25,0,0],[0.5,0,0],[0.75,0,0],[1,0,0],[0,1,0],[0.25,1,0],[0.5,1,0],[0.75,1,0],[1,1,0],[0,0.25,0],[0,0.5,0],[0,0.75,0],[1,0.25,0],[1,0.5,0],[1,0.75,0]];outlineConnect=0;fontColor=#232F3E;fillColor=#C925D1;strokeColor=#ffffff;dashed=0;verticalLabelPosition=bottom;verticalAlign=top;align=center;html=1;fontSize=12;fontStyle=0;aspect=fixed;shape=mxgraph.aws4.resourceIcon;resIcon=mxgraph.aws4.database;" vertex="1" parent="1">
          <mxGeometry x="950" y="300" width="78" height="78" as="geometry" />
        </mxCell>
        <mxCell id="dUggy9YAXrd2Rz0z9RZD-47" style="edgeStyle=orthogonalEdgeStyle;rounded=0;orthogonalLoop=1;jettySize=auto;html=1;entryX=0.5;entryY=0;entryDx=0;entryDy=0;" edge="1" parent="1" source="dUggy9YAXrd2Rz0z9RZD-45" target="dUggy9YAXrd2Rz0z9RZD-37">
          <mxGeometry relative="1" as="geometry" />
        </mxCell>
        <mxCell id="dUggy9YAXrd2Rz0z9RZD-45" value="Amazon ECS" style="sketch=0;outlineConnect=0;fontColor=#232F3E;gradientColor=none;strokeColor=#ffffff;fillColor=#232F3E;dashed=0;verticalLabelPosition=middle;verticalAlign=bottom;align=center;html=1;whiteSpace=wrap;fontSize=10;fontStyle=1;spacing=3;shape=mxgraph.aws4.productIcon;prIcon=mxgraph.aws4.ecs;" vertex="1" parent="1">
          <mxGeometry x="580" y="10" width="80" height="100" as="geometry" />
        </mxCell>
      </root>
    </mxGraphModel>
  </diagram>
</mxfile>
